<svg data-v-423bf9ae="" xmlns="http://www.w3.org/2000/svg" viewBox="0 0 272.41863250129865 60" class="font"><!----><!----><!----><g data-v-423bf9ae="" id="819e08f4-950f-4e61-ac27-0e5f236baecc" fill="black" transform="matrix(4.2432810817876145,0,0,4.2432810817876145,-4.455444215273076,-33.86138359043649)"><path d="M8.25 17.93Q8.25 18.19 8.32 18.42Q8.40 18.66 8.54 18.79L8.54 18.79Q8.08 19.18 7.49 19.18L7.49 19.18Q6.61 19.18 6.61 18.07L6.61 18.07Q6.61 17.85 6.68 17.19L6.68 17.19L6.52 17.12Q6.02 18.10 5.26 18.64Q4.49 19.18 3.60 19.18L3.60 19.18Q2.84 19.18 2.26 18.77Q1.68 18.37 1.36 17.62Q1.05 16.87 1.05 15.89L1.05 15.89Q1.05 14.48 1.76 13.31Q2.48 12.14 3.71 11.46Q4.94 10.78 6.43 10.78L6.43 10.78Q7.07 10.78 7.66 10.88L7.66 10.88L7.94 9.28L7.32 8.58Q7.66 8.30 8.11 8.14Q8.55 7.98 8.93 7.98L8.93 7.98Q9.32 7.98 9.49 8.16Q9.66 8.33 9.66 8.75L9.66 8.75Q9.66 9.03 9.54 9.62Q9.42 10.21 9.27 10.91L9.27 10.91Q8.81 12.95 8.53 14.60Q8.25 16.24 8.25 17.93L8.25 17.93ZM6.93 15.41Q7.20 13.54 7.55 11.56L7.55 11.56Q6.09 11.62 5.01 12.18Q3.93 12.74 3.35 13.69Q2.77 14.64 2.77 15.85L2.77 15.85Q2.77 16.80 3.16 17.33Q3.56 17.86 4.27 17.86L4.27 17.86Q5.04 17.86 5.78 17.18Q6.52 16.49 6.93 15.33L6.93 15.33L6.93 15.41ZM18.97 12.43Q18.97 13.87 17.49 14.69Q16.02 15.51 13.29 15.58L13.29 15.58L13.29 15.85Q13.29 16.97 13.71 17.61Q14.13 18.24 14.85 18.24L14.85 18.24Q15.76 18.24 16.34 17.67Q16.91 17.09 16.97 16.14L16.97 16.14Q18.10 16.14 18.10 16.98L18.10 16.98Q18.10 17.54 17.65 18.05Q17.21 18.56 16.43 18.87Q15.65 19.18 14.71 19.18L14.71 19.18Q13.23 19.18 12.39 18.27Q11.55 17.36 11.55 15.76L11.55 15.76Q11.55 14.25 12.21 13.03Q12.87 11.82 14.03 11.12Q15.19 10.43 16.62 10.43L16.62 10.43Q17.72 10.43 18.35 10.96Q18.97 11.49 18.97 12.43L18.97 12.43ZM16.38 11.31Q15.67 11.31 15.04 11.77Q14.42 12.22 13.98 13.01Q13.54 13.80 13.37 14.80L13.37 14.80Q15.30 14.76 16.37 14.13Q17.44 13.50 17.44 12.39L17.44 12.39Q17.44 11.90 17.15 11.61Q16.86 11.31 16.38 11.31L16.38 11.31ZM26.33 10.43Q27.09 10.43 27.67 10.82Q28.25 11.20 28.57 11.91Q28.88 12.61 28.88 13.55L28.88 13.55Q28.88 15.12 28.05 16.41Q27.22 17.70 25.78 18.44Q24.35 19.18 22.61 19.18L22.61 19.18Q21.78 19.18 21.34 18.81Q20.89 18.44 20.89 17.37L20.89 17.37Q20.89 15.67 22.27 9.30L22.27 9.30L21.66 8.60Q21.99 8.32 22.45 8.16Q22.90 7.99 23.27 7.99L23.27 7.99Q23.67 7.99 23.84 8.17Q24.01 8.34 24.01 8.76L24.01 8.76Q24.01 9.03 23.91 9.50Q23.80 9.97 23.59 10.81L23.59 10.81Q23.32 11.84 23.16 12.59L23.16 12.59L23.30 12.66Q23.83 11.59 24.61 11.01Q25.40 10.43 26.33 10.43L26.33 10.43ZM22.26 18.27Q23.65 18.21 24.77 17.61Q25.89 17.01 26.52 16.00Q27.16 14.98 27.16 13.76L27.16 13.76Q27.16 12.81 26.77 12.28Q26.38 11.75 25.66 11.75L25.66 11.75Q24.79 11.75 24.01 12.57Q23.23 13.40 22.74 14.89Q22.26 16.38 22.26 18.27L22.26 18.27ZM37.98 18.06Q37.98 18.59 38.22 18.80L38.22 18.80Q37.80 19.18 37.25 19.18L37.25 19.18Q36.78 19.18 36.55 18.86Q36.32 18.54 36.32 17.85L36.32 17.85L36.32 17.81L36.18 17.74Q35.73 18.37 34.97 18.77Q34.22 19.18 33.50 19.18L33.50 19.18Q32.35 19.18 31.81 18.63Q31.26 18.07 31.26 16.91L31.26 16.91Q31.26 16.34 31.35 15.74Q31.44 15.13 31.64 14.14L31.64 14.14Q31.79 13.37 31.88 12.84Q31.96 12.31 31.96 11.89L31.96 11.89Q31.96 11.27 31.81 10.81L31.81 10.81Q32.09 10.64 32.40 10.54Q32.70 10.43 32.90 10.43L32.90 10.43Q33.31 10.43 33.49 10.65Q33.68 10.86 33.68 11.34L33.68 11.34Q33.68 11.69 33.57 12.32Q33.46 12.95 33.24 14.00L33.24 14.00Q33.08 14.77 32.95 15.49Q32.82 16.21 32.82 16.53L32.82 16.53Q32.82 17.33 33.15 17.74Q33.49 18.14 34.15 18.14L34.15 18.14Q34.83 18.14 35.44 17.71Q36.05 17.28 36.47 16.49L36.47 16.49Q36.79 14.73 37.46 11.86L37.46 11.86L36.89 11.02Q37.17 10.77 37.63 10.60Q38.09 10.43 38.47 10.43L38.47 10.43Q38.89 10.43 39.07 10.61Q39.24 10.78 39.24 11.20L39.24 11.20Q39.24 11.31 38.98 12.40L38.98 12.40Q38.53 14.32 38.25 15.69Q37.98 17.07 37.98 18.06L37.98 18.06ZM48.36 10.74Q48.94 10.74 48.94 11.27L48.94 11.27Q48.94 14.28 48.30 16.72Q47.66 19.17 46.22 20.64Q44.79 22.12 42.52 22.12L42.52 22.12Q41.51 22.12 40.89 21.78Q40.26 21.43 40.26 20.90L40.26 20.90Q40.26 20.62 40.45 20.32Q40.63 20.02 40.92 19.81L40.92 19.81Q41.24 20.37 41.71 20.64Q42.18 20.92 42.85 20.92L42.85 20.92Q43.55 20.92 44.32 20.52Q45.08 20.12 45.78 19.19Q46.48 18.26 46.91 16.77L46.91 16.77L46.62 16.77Q46.13 17.71 45.29 18.24Q44.45 18.77 43.55 18.77L43.55 18.77Q42.78 18.77 42.19 18.38Q41.59 17.98 41.27 17.24Q40.94 16.51 40.94 15.54L40.94 15.54Q40.94 14.10 41.57 12.94Q42.21 11.77 43.41 11.10Q44.60 10.43 46.21 10.43L46.21 10.43Q46.94 10.43 47.53 10.54L47.53 10.54Q47.67 10.77 47.68 11.02L47.68 11.02Q47.89 10.85 48.04 10.79Q48.19 10.74 48.36 10.74L48.36 10.74ZM47.45 11.20L47.47 12.94L47.49 12.24Q47.49 11.93 47.46 11.20L47.46 11.20L47.45 11.20ZM44.23 17.60Q44.90 17.60 45.64 17.02Q46.38 16.44 46.91 15.00Q47.45 13.57 47.45 11.20L47.45 11.20Q45.99 11.24 44.91 11.80Q43.82 12.35 43.24 13.29Q42.66 14.24 42.66 15.44L42.66 15.44Q42.66 16.46 43.07 17.03Q43.48 17.60 44.23 17.60L44.23 17.60ZM52.11 19.18Q51.16 19.18 51.16 18.02L51.16 18.02Q51.16 17.44 51.54 15.49Q51.93 13.54 52.37 11.83L52.37 11.83L51.76 11.13Q52.56 10.47 53.14 10.47L53.14 10.47Q53.54 10.47 53.72 10.69Q53.90 10.91 53.90 11.24L53.90 11.24Q53.90 11.68 53.75 12.19Q53.61 12.70 53.33 13.38L53.33 13.38L53.47 13.45Q54.75 10.42 56.22 10.42L56.22 10.42Q57.15 10.42 57.15 11.24L57.15 11.24Q57.15 11.70 56.78 11.98Q56.42 12.26 55.83 12.26L55.83 12.26Q55.09 12.26 54.39 13.10Q53.69 13.94 53.26 15.29Q52.82 16.63 52.82 18.06L52.82 18.06Q52.82 18.58 52.99 18.79L52.99 18.79Q52.57 19.18 52.11 19.18L52.11 19.18ZM65.25 13.89Q65.25 14.07 65.17 14.45Q65.09 14.83 64.97 15.27L64.97 15.27Q64.67 16.42 64.48 17.42Q64.29 18.42 64.29 19.40L64.29 19.40Q64.29 20.33 64.62 20.87L64.62 20.87Q64.26 21.06 63.99 21.13Q63.73 21.21 63.42 21.21L63.42 21.21Q62.85 21.21 62.53 20.84Q62.22 20.47 62.22 19.78L62.22 19.78Q62.22 19.38 62.37 18.61L62.37 18.61Q61.71 18.70 60.86 18.77Q60.02 18.83 59.32 18.83L59.32 18.83Q58.23 18.83 57.72 18.52Q57.22 18.21 57.22 17.56L57.22 17.56Q57.22 17.12 57.53 16.47Q57.83 15.82 58.53 14.59L58.53 14.59Q59.44 13.02 59.93 11.96Q60.41 10.89 60.41 10.01L60.41 10.01Q60.41 9.67 60.30 9.27L60.30 9.27Q60.79 9.03 61.29 9.03L61.29 9.03Q62.43 9.03 62.43 10.40L62.43 10.40Q62.43 11.65 61.42 13.41Q60.42 15.16 58.38 17.51L58.38 17.51L62.62 17.51Q63.06 15.88 63.70 13.96L63.70 13.96Q63.94 13.78 64.25 13.66Q64.55 13.55 64.82 13.55L64.82 13.55Q65.06 13.55 65.16 13.63Q65.25 13.71 65.25 13.89L65.25 13.89Z"></path></g><!----><!----></svg>